Coordinates
version=1
nRows=8
nColumns=36
inDegrees=yes

Units are S.I. units (second, meters, Newtons, ...)
If the header above contains a line with 'inDegrees', this indicates whether rotational values are in degrees (yes) or radians (no).

endheader
time	pelvis_tilt	pelvis_list	pelvis_rotation	pelvis_tx	pelvis_ty	pelvis_tz	hip_flexion_r	hip_adduction_r	hip_rotation_r	knee_angle_r	knee_angle_r_beta	ankle_angle_r	subtalar_angle_r	mtp_angle_r	hip_flexion_l	hip_adduction_l	hip_rotation_l	knee_angle_l	knee_angle_l_beta	ankle_angle_l	subtalar_angle_l	mtp_angle_l	lumbar_extension	lumbar_bending	lumbar_rotation	arm_flex_r	arm_add_r	arm_rot_r	elbow_flex_r	pro_sup_r	arm_flex_l	arm_add_l	arm_rot_l	elbow_flex_l	pro_sup_l
      3.00000000	      3.99955513	      1.17153748	     17.27015298	     -0.33797339	      1.22215560	     -0.11105709	    -10.13979504	      1.99498439	     -7.96518428	      3.55892110	      0.06211489	      8.05887880	    -22.77385714	     -7.49999987	     -7.32116859	     -2.85625362	     14.96048676	      0.23381771	      0.00408089	     13.48276055	      8.03594992	     -7.49999987	    -11.10993472	      3.24035368	      4.31812438	     11.38162055	     -9.36263439	     33.09191363	     23.81761134	     73.81140551	      2.20040327	     -5.88019079	     16.03548269	     25.18394499	     64.51645109
      3.01666670	      3.96918874	      1.26935197	     17.24294777	     -0.33775496	      1.21964878	     -0.11086517	    -10.03603503	      1.83389649	     -7.99090062	      3.63195483	      0.06338957	      7.86308954	    -22.98333311	     -7.49999987	     -7.33432054	     -2.69654516	     14.85039352	      0.23863250	      0.00416492	     13.39552574	      8.05347461	     -7.49999987	    -11.12600384	      3.16970025	      4.31433991	     11.44139125	     -9.35828204	     32.95789729	     23.79724984	     74.05955867	      2.36313523	     -5.88073552	     16.39137309	     25.08585120	     64.38097886
      3.03333330	      3.96569629	      1.36456161	     17.35024072	     -0.33752716	      1.21780005	     -0.11101791	    -10.00557872	      1.74673790	     -7.97244941	      3.61198065	      0.06304095	      7.81163109	    -23.18766772	     -7.49999987	     -7.28528015	     -2.57834033	     14.90404138	      0.24199172	      0.00422355	     13.28452353	      8.03893293	     -7.49999987	    -11.25318920	      3.09146901	      4.34739992	     11.34894228	     -9.42255834	     32.63470399	     24.10918873	     72.52145664	      2.59943990	     -5.92754991	     16.60984002	     25.39014970	     63.64390898
      3.05000000	      3.82079769	      1.43111250	     17.48358293	     -0.33755355	      1.22089777	     -0.11098155	     -9.79032509	      1.63497295	     -8.06013966	      3.63751176	      0.06348656	      7.75439791	    -23.33411992	     -7.49999987	     -7.04023559	     -2.45433289	     15.07934631	      0.24308876	      0.00424270	     13.10063937	      7.98635996	     -7.49999987	    -11.20194938	      3.02272856	      4.21637863	     11.38911060	     -9.37684147	     32.44424866	     24.05006942	     73.14349961	      2.83453401	     -5.95239626	     16.83468002	     25.28033217	     63.67297221
      3.06666670	      3.82635872	      1.49667641	     17.60327533	     -0.33740656	      1.21862896	     -0.11102959	     -9.68100039	      1.57827729	     -8.10513965	      3.75970834	      0.06561929	      7.79183305	    -23.47364586	     -7.49999987	     -6.98540767	     -2.38102968	     15.05024082	      0.24685046	      0.00430835	     13.05389370	      8.15157451	     -7.49999987	    -11.32870798	      2.97799765	      4.26711755	     11.23822005	     -9.41340031	     31.16680271	     24.31522016	     77.63874290	      2.98605128	     -6.01457503	     17.24125520	     25.36237784	     64.46593758
      3.08333330	      3.73867355	      1.53623512	     17.71813279	     -0.33736071	      1.21901131	     -0.11099592	     -9.45333473	      1.51819131	     -8.11510954	      3.94186046	      0.06879844	      7.74650084	    -23.78008614	     -7.49999987	     -6.80436734	     -2.31537794	     15.17906683	      0.24732953	      0.00431671	     12.92027124	      8.18107888	     -7.49999987	    -11.32078354	      2.91709019	      4.20803583	     11.14749508	     -9.36518299	     30.90223724	     24.46520678	     75.40186168	      2.98756255	     -5.98736285	     17.07993415	     25.47419786	     63.73927950
      3.10000000	      3.71605093	      1.58980493	     17.80643223	     -0.33726622	      1.21946282	     -0.11112356	     -9.31119532	      1.45896112	     -8.09247432	      4.11488335	      0.07181826	      7.85260288	    -24.00390002	     -7.49999987	     -6.70853913	     -2.23902818	     15.29212414	      0.25023299	      0.00436739	     12.83065658	      8.14352700	     -7.49999987	    -11.33747828	      2.85810178	      4.08569803	     11.08008649	     -9.31281529	     30.62457542	     24.52999515	     75.49318833	      2.92419493	     -6.02099769	     17.05102608	     25.61882917	     63.68818093
      3.11666670	      3.66500099	      1.61296531	     17.82036312	     -0.34388376	      1.21938086	     -0.11440746	     -9.02108143	      1.30484528	     -8.23449913	      4.44727324	      0.07761956	      8.10339869	    -24.02316029	     -7.49999987	     -6.53739828	     -2.11624428	     15.16938273	      0.25282772	      0.00441268	     12.80038140	      8.30625200	     -7.49999987	    -11.42137133	      2.89826913	      3.98814162	     11.11915651	     -9.42570918	     30.30018653	     24.84859319	     74.74269285	      3.08108715	     -5.88550952	     16.84847597	     25.71769463	     63.43266735
